<svg width="25" height="25" viewBox="0 0 25 25" fill="none" xmlns="http://www.w3.org/2000/svg">
<path fill-rule="evenodd" clip-rule="evenodd" d="M20.6602 7H18.4802C18.5902 6.69 18.6602 6.35 18.6602 6C18.6602 4.34 17.3202 3 15.6602 3C14.6102 3 13.7002 3.54 13.1602 4.35L12.6602 5.02L12.1602 4.34C11.6202 3.54 10.7102 3 9.66016 3C8.00016 3 6.66016 4.34 6.66016 6C6.66016 6.35 6.73016 6.69 6.84016 7H4.66016C3.55016 7 2.67016 7.89 2.67016 9L2.66016 20C2.66016 21.11 3.55016 22 4.66016 22H20.6602C21.7702 22 22.6602 21.11 22.6602 20V9C22.6602 7.89 21.7702 7 20.6602 7ZM15.6602 5C16.2102 5 16.6602 5.45 16.6602 6C16.6602 6.55 16.2102 7 15.6602 7C15.1102 7 14.6602 6.55 14.6602 6C14.6602 5.45 15.1102 5 15.6602 5ZM10.6602 6C10.6602 5.45 10.2102 5 9.66016 5C9.11016 5 8.66016 5.45 8.66016 6C8.66016 6.55 9.11016 7 9.66016 7C10.2102 7 10.6602 6.55 10.6602 6ZM4.66016 20V18H20.6602V20H4.66016ZM4.66016 10V15H20.6602V10C20.6602 9.45 20.2102 9 19.6602 9H15.5802L17.0602 11.02C17.3902 11.47 17.2902 12.1 16.8402 12.42C16.4002 12.74 15.7702 12.64 15.4502 12.2L12.6602 8.4L9.87016 12.2C9.55016 12.64 8.92016 12.74 8.48016 12.42C8.03016 12.1 7.93016 11.47 8.26016 11.02L9.74016 9H5.66016C5.11016 9 4.66016 9.45 4.66016 10Z" fill="black"/>
</svg>
